<?xml version="1.0" standalone="no"?>
<!DOCTYPE svg PUBLIC "-//W3C//DTD SVG 20010904//EN"
 "http://www.w3.org/TR/2001/REC-SVG-20010904/DTD/svg10.dtd">
<svg version="1.0" xmlns="http://www.w3.org/2000/svg"
 width="512.000000pt" height="512.000000pt" viewBox="0 0 512.000000 512.000000"
 preserveAspectRatio="xMidYMid meet">
<metadata>
Created by potrace 1.14, written by Peter Selinger 2001-2017
</metadata>
<g transform="translate(0.000000,512.000000) scale(0.100000,-0.100000)"
fill="#000000" stroke="none">
<path d="M2408 5115 c-2 -1 -28 -5 -58 -8 -575 -62 -1105 -438 -1373 -973 -37
-73 -122 -298 -131 -349 -2 -5 -8 -35 -15 -66 -21 -101 -37 -262 -36 -380 l1
-116 -80 30 c-45 16 -110 36 -146 44 -68 15 -204 19 -243 7 -146 -44 -217
-149 -212 -314 2 -57 10 -108 31 -201 5 -23 0 -29 -37 -50 -24 -13 -57 -44
-74 -67 -29 -43 -30 -46 -30 -165 1 -117 8 -238 19 -302 3 -16 8 -43 10 -60
12 -80 39 -200 69 -300 11 -38 22 -74 23 -80 15 -67 156 -386 207 -470 63
-104 168 -257 219 -321 432 -546 1073 -896 1758 -961 96 -9 415 -10 500 -1
611 66 1143 320 1567 749 239 242 417 507 546 817 83 198 153 458 173 636 2
23 7 57 10 76 3 19 7 97 9 172 4 118 2 143 -14 181 -20 47 -60 86 -109 106
-26 11 -29 16 -21 34 17 40 35 164 34 229 -4 159 -84 263 -224 293 -40 9 -161
9 -188 1 -10 -3 -31 -8 -48 -10 -40 -7 -78 -19 -156 -49 l-65 -25 0 122 c0
293 -54 528 -181 788 -219 450 -647 801 -1128 927 -149 39 -257 53 -432 56
-94 2 -173 2 -175 0z"/>
</g>
</svg>
